<?xml version="1.0" encoding="UTF-8" standalone="no"?>
<svg
   viewBox="0 0 128 128"
   version="1.1"
   id="svg4"
   width="128"
   height="128"
   xmlns="http://www.w3.org/2000/svg"
   xmlns:svg="http://www.w3.org/2000/svg">
  <defs
     id="defs8" />
  <path
     fill="#5865f2"
     d="m 108.12978,23.89 a 105.15,105.15 0 0 0 -26.230005,-8.07 72.06,72.06 0 0 0 -3.36,6.83 97.68,97.68 0 0 0 -29.11,0 72.37,72.37 0 0 0 -3.36,-6.83 105.89,105.89 0 0 0 -26.25,8.09 C 3.2197751,48.47 -1.2802249,72.42 0.96977514,96.03 v 0 a 105.73,105.73 0 0 0 32.16999986,16.15 77.7,77.7 0 0 0 6.89,-11.11 68.42,68.42 0 0 1 -10.85,-5.18 c 0.91,-0.66 1.8,-1.34 2.66,-2 a 75.57,75.57 0 0 0 64.32,0 c 0.87,0.71 1.76,1.39 2.66,2 a 68.68,68.68 0 0 1 -10.87,5.19 77,77 0 0 0 6.89,11.1 105.25,105.25 0 0 0 32.190005,-16.14 v 0 c 2.64,-27.38 -4.51,-51.11 -18.9,-72.15 z M 42.879775,81.51 c -6.27,0 -11.45,-5.69 -11.45,-12.69 0,-7 5,-12.74 11.43,-12.74 6.43,0 11.57,5.74 11.46,12.74 -0.11,7 -5.05,12.69 -11.44,12.69 z m 42.24,0 c -6.28,0 -11.44,-5.69 -11.44,-12.69 0,-7 5,-12.74 11.44,-12.74 6.44,0 11.54,5.74 11.43,12.74 -0.11,7 -5.04,12.69 -11.43,12.69 z"
     id="path2" />
</svg>
